<?xml version="1.0" encoding="utf-8"?>
<!-- Generator: Adobe Illustrator 21.0.2, SVG Export Plug-In . SVG Version: 6.00 Build 0)  -->
<svg version="1.1" id="Layer_1" xmlns="http://www.w3.org/2000/svg" xmlns:xlink="http://www.w3.org/1999/xlink" x="0px" y="0px"
	 viewBox="0 0 566 80" style="enable-background:new 0 0 566 80;" xml:space="preserve">
<style type="text/css">
	.st0{fill:#0e4bbe;}
	.st1{fill:#c926b5;}
</style>
<path class="st0" d="M27.2,12.7h25.2c1.6,0,3.2,0.4,4.7,1.1c1.5,0.7,2.9,1.7,4.1,2.9c1.2,1.2,2.2,2.6,2.9,4.2
	c0.7,1.6,1.1,3.1,1.1,4.7v18.7c0,1.6-0.4,3.2-1.1,4.7c-0.7,1.5-1.7,2.9-2.9,4.1c-1.2,1.2-2.6,2.2-4.1,2.9c-1.5,0.7-3.1,1.1-4.7,1.1
	H29v11H12.5V25.9h0.1c0.1-1.7,0.5-3.3,1.2-4.8c0.7-1.5,1.5-2.9,2.7-4.1c1.1-1.2,2.4-2.1,3.9-2.9c1.5-0.7,3.1-1.1,4.9-1.2L27.2,12.7z
	 M49.1,40.7V29.2c0-1.7-0.4-2.9-1.3-3.7c-0.9-0.8-2-1.2-3.5-1.2H33.5c-1.2,0-2.2,0.4-3.2,1.3c-1,0.9-1.5,1.9-1.5,3v16.4h16.8
	c0.9-0.3,1.8-0.8,2.4-1.5C48.8,42.9,49.1,42,49.1,40.7z"/>
<path class="st0" d="M181.8,68.1h-36.6c-1.8,0-3.5-0.3-5.1-1c-1.6-0.7-3-1.6-4.2-2.9c-1.2-1.2-2.2-2.6-2.9-4.2
	c-0.7-1.6-1.2-3.3-1.3-5h-0.1V12.8h16.5v39.3c0,0.3,0.1,0.7,0.3,1.2c0.2,0.5,0.5,1,0.8,1.5c0.3,0.5,0.7,0.9,1.1,1.2
	c0.4,0.3,0.8,0.5,1.2,0.5h30.2V68.1z"/>
<path class="st0" d="M238.8,12.7v41.4c0,1.9-0.4,3.7-1.1,5.4c-0.7,1.7-1.7,3.2-2.9,4.5c-1.2,1.3-2.7,2.3-4.3,3.1
	c-1.7,0.7-3.4,1.1-5.3,1.1h-36.6V56.6h30.2c0.4,0,0.8-0.2,1.2-0.6c0.4-0.4,0.8-0.8,1.2-1.3c0.3-0.5,0.6-1,0.8-1.5
	c0.2-0.5,0.3-0.9,0.3-1.2V46h-21c-1.6,0-3.2-0.4-4.7-1.1c-1.5-0.7-2.9-1.7-4.1-2.9c-1.2-1.2-2.2-2.5-2.9-4.1
	c-0.7-1.5-1.1-3.1-1.1-4.7V12.7h16.1v16.9c0,1.3,0.3,2.3,1,2.9c0.6,0.7,1.4,1.2,2.4,1.5h14.4V12.7H238.8z"/>
<g>
	<path class="st1" d="M111.8,56.7l-5.7-5.7v0.7c0,1.2-0.3,2.1-0.9,2.8c-0.6,0.7-1.3,1.2-2.2,1.6c-0.9,0.4-1.8,0.6-2.9,0.7
		c-1,0.1-2,0.1-2.9,0.1c-1.1,0-2.1-0.1-3.1-0.2c-1-0.2-1.9-0.5-2.6-0.9c-0.7-0.4-1.4-1.1-1.8-1.9c-0.5-0.8-0.7-1.9-0.7-3.2V48h0
		v-5.8h4.5c0.9,0,1.4-1.1,0.7-1.8L81.7,27.8c-0.4-0.4-1.1-0.4-1.5,0L67.6,40.4c-0.6,0.6-0.2,1.8,0.7,1.8h4.5V48h0v7.3
		c0,1.2,0.3,2.6,0.8,4.1c0.6,1.5,1.3,2.9,2.4,4.2c1,1.3,2.3,2.4,3.8,3.2c1.5,0.9,3.2,1.3,5,1.3h26.3c1.5,0,2.9-0.4,4.2-1.2
		c1.3-0.8,2.5-1.9,3.5-3.2c1-1.3,1.8-2.7,2.4-4.2c0.6-1.5,0.9-2.9,0.9-4.2V49l-7.7,7.7C113.7,57.4,112.5,57.4,111.8,56.7z"/>
	<path class="st1" d="M125.8,38.7h-3.7V25.6c0-1.5-0.4-3.1-1.1-4.7c-0.7-1.6-1.7-2.9-2.9-4.1c-1.2-1.2-2.5-2.2-4.1-2.9
		c-1.5-0.7-3.1-1.1-4.7-1.1H85.5c-1.7,0-3.3,0.4-4.8,1.2c-1.5,0.8-2.9,1.8-4.1,3c-1.2,1.2-2.1,2.7-2.8,4.2c-0.7,1.6-1,3.2-1,4.8v5
		l6.8-6.8c0.7-0.7,1.9-0.7,2.6,0l6.8,6.8v-1.2c0-1.3,0.2-2.4,0.7-3.2c0.5-0.8,1.1-1.3,1.8-1.7c0.7-0.4,1.6-0.6,2.6-0.7
		c1-0.1,2-0.2,3.1-0.2c0.9,0,1.8,0,2.9,0.1c1,0.1,2,0.3,2.9,0.6c0.9,0.3,1.6,0.8,2.2,1.5c0.6,0.7,0.9,1.6,0.9,2.9v3h0v6.5h-5.7
		c-0.9,0-1.4,1.1-0.7,1.8l12.7,12.7c0.4,0.4,1.1,0.4,1.5,0l12.7-12.7C127.2,39.8,126.7,38.7,125.8,38.7z"/>
</g>
<g>
	<path class="st0" d="M314.1,12.8v55.3h-16.4V24.4h-9.7v43.7h-16.7V24.4h-6.1c-0.4,0-0.9,0.1-1.3,0.4c-0.4,0.3-0.8,0.6-1.1,1
		c-0.3,0.4-0.6,0.8-0.8,1.2c-0.2,0.4-0.3,0.8-0.3,1v40h-15.9V23.8c0-1.6,0.4-3,1.3-4.4c0.9-1.4,1.9-2.5,3.2-3.5
		c1.3-1,2.7-1.8,4.3-2.3c1.5-0.6,3-0.8,4.5-0.8H314.1z"/>
	<path class="st0" d="M407.5,57.1h-10.5v11h-16.5V25.9h0.1c0.1-1.7,0.5-3.3,1.2-4.8c0.7-1.5,1.5-2.9,2.7-4.1
		c1.1-1.2,2.4-2.1,3.9-2.9c1.5-0.7,3.1-1.1,4.9-1.2l2.1-0.2h25.2c1.6,0,3.2,0.4,4.7,1.1c1.5,0.7,2.9,1.7,4.1,2.9
		c1.2,1.2,2.2,2.6,2.9,4.2c0.7,1.6,1.1,3.1,1.1,4.7v18.7c0,1.2-0.2,2.4-0.7,3.6c-0.4,1.2-1.1,2.3-1.8,3.4c-0.8,1.1-1.7,2-2.7,2.8
		c-1,0.8-2.1,1.5-3.2,2l8.4,12h-17.6L407.5,57.1z M417.2,29.2c0-1.7-0.4-2.9-1.3-3.7c-0.9-0.8-2-1.2-3.5-1.2h-10.8
		c-1.2,0-2.2,0.4-3.2,1.3c-1,0.9-1.5,1.9-1.5,3v16.4h16.8c0.9-0.3,1.8-0.8,2.4-1.5c0.7-0.7,1-1.6,1-2.9V29.2z"/>
	<path class="st0" d="M454.7,12.7h25.2c1.6,0,3.2,0.4,4.7,1.1c1.5,0.7,2.9,1.7,4.1,2.9c1.2,1.2,2.2,2.6,2.9,4.2
		c0.7,1.6,1.1,3.1,1.1,4.7v18.7c0,1.6-0.4,3.2-1.1,4.7c-0.7,1.5-1.7,2.9-2.9,4.1c-1.2,1.2-2.6,2.2-4.1,2.9c-1.5,0.7-3.1,1.1-4.7,1.1
		h-23.3v11H440V25.9h0.1c0.1-1.7,0.5-3.3,1.2-4.8c0.7-1.5,1.5-2.9,2.7-4.1c1.1-1.2,2.4-2.1,3.9-2.9c1.5-0.7,3.1-1.1,4.9-1.2
		L454.7,12.7z M476.7,40.7V29.2c0-1.7-0.4-2.9-1.3-3.7c-0.9-0.8-2-1.2-3.5-1.2H461c-1.2,0-2.2,0.4-3.2,1.3c-1,0.9-1.5,1.9-1.5,3
		v16.4h16.8c0.9-0.3,1.8-0.8,2.4-1.5C476.3,42.9,476.7,42,476.7,40.7z"/>
	<path class="st0" d="M515.4,12.8v32.3h19.1V12.8h15.9v55.3h-15.9v-11h-19.1v11h-15.9V12.8H515.4z"/>
	<g>
		<path class="st0" d="M335.1,68.1c-1.8,0-3.5-0.4-5-1.3c-1.5-0.9-2.8-2-3.8-3.2c-1-1.3-1.8-2.7-2.4-4.2c-0.6-1.5-0.8-2.9-0.8-4.1
			V26c0-1.6,0.3-3.2,1-4.8c0.7-1.6,1.6-3,2.8-4.2c1.2-1.2,2.5-2.3,4.1-3c1.5-0.8,3.1-1.2,4.8-1.2h23.9c1.6,0,3.2,0.4,4.7,1.1
			c1.5,0.7,2.9,1.7,4.1,2.9c1.2,1.2,2.1,2.6,2.9,4.1c0.7,1.6,1.1,3.1,1.1,4.7v29.7c0,1.3-0.3,2.7-0.9,4.2c-0.6,1.5-1.4,2.9-2.4,4.2
			c-1,1.3-2.2,2.3-3.5,3.2c-1.3,0.8-2.7,1.2-4.2,1.2H335.1z M347.6,24.1c-1.1,0-2.1,0.1-3.1,0.2c-1,0.1-1.9,0.3-2.6,0.7
			c-0.7,0.4-1.4,0.9-1.8,1.7c-0.5,0.8-0.7,1.8-0.7,3.2v20.8c0,1.3,0.2,2.4,0.7,3.2c0.5,0.8,1.1,1.5,1.8,1.9c0.7,0.4,1.6,0.7,2.6,0.9
			c1,0.2,2,0.2,3.1,0.2c0.9,0,1.8,0,2.9-0.1c1-0.1,2-0.3,2.9-0.7c0.9-0.4,1.6-0.9,2.2-1.6c0.6-0.7,0.9-1.6,0.9-2.8V29.2
			c0-1.2-0.3-2.2-0.9-2.9c-0.6-0.7-1.3-1.2-2.2-1.5c-0.9-0.3-1.8-0.5-2.9-0.6C349.4,24.1,348.5,24.1,347.6,24.1z"/>
	</g>
</g>
</svg>
