<?xml version="1.0" encoding="utf-8"?>
<!-- Generator: Adobe Illustrator 21.0.2, SVG Export Plug-In . SVG Version: 6.00 Build 0)  -->
<svg version="1.1" id="Layer_1" xmlns="http://www.w3.org/2000/svg" xmlns:xlink="http://www.w3.org/1999/xlink" x="0px" y="0px"
	 viewBox="0 0 83 80" style="enable-background:new 0 0 83 80;" xml:space="preserve">
<style type="text/css">
	.st0{fill:#c926b5;}
</style>
<g>
	<path class="st0" d="M55.3,56.7L49.6,51v0.7c0,1.2-0.3,2.1-0.9,2.8c-0.6,0.7-1.3,1.2-2.2,1.6c-0.9,0.4-1.8,0.6-2.9,0.7
		c-1,0.1-2,0.1-2.9,0.1c-1.1,0-2.1-0.1-3.1-0.2c-1-0.2-1.9-0.5-2.6-0.9c-0.7-0.4-1.4-1.1-1.8-1.9c-0.5-0.8-0.7-1.9-0.7-3.2V48h0
		v-5.8h4.5c0.9,0,1.4-1.1,0.7-1.8L25.2,27.8c-0.4-0.4-1.1-0.4-1.5,0L11.1,40.4c-0.6,0.6-0.2,1.8,0.7,1.8h4.5V48h0v7.3
		c0,1.2,0.3,2.6,0.8,4.1c0.6,1.5,1.3,2.9,2.4,4.2c1,1.3,2.3,2.4,3.8,3.2c1.5,0.9,3.2,1.3,5,1.3h26.3c1.5,0,2.9-0.4,4.2-1.2
		c1.3-0.8,2.5-1.9,3.5-3.2c1-1.3,1.8-2.7,2.4-4.2c0.6-1.5,0.9-2.9,0.9-4.2V49l-7.7,7.7C57.2,57.4,56,57.4,55.3,56.7z"/>
	<path class="st0" d="M69.3,38.7h-3.7V25.6c0-1.5-0.4-3.1-1.1-4.7c-0.7-1.6-1.7-2.9-2.9-4.1c-1.2-1.2-2.5-2.2-4.1-2.9
		c-1.5-0.7-3.1-1.1-4.7-1.1H29c-1.7,0-3.3,0.4-4.8,1.2c-1.5,0.8-2.9,1.8-4.1,3c-1.2,1.2-2.1,2.7-2.8,4.2c-0.7,1.6-1,3.2-1,4.8v5
		l6.8-6.8c0.7-0.7,1.9-0.7,2.6,0l6.8,6.8v-1.2c0-1.3,0.2-2.4,0.7-3.2c0.5-0.8,1.1-1.3,1.8-1.7c0.7-0.4,1.6-0.6,2.6-0.7
		c1-0.1,2-0.2,3.1-0.2c0.9,0,1.8,0,2.9,0.1c1,0.1,2,0.3,2.9,0.6c0.9,0.3,1.6,0.8,2.2,1.5c0.6,0.7,0.9,1.6,0.9,2.9v3h0v6.5h-5.7
		c-0.9,0-1.4,1.1-0.7,1.8l12.7,12.7c0.4,0.4,1.1,0.4,1.5,0L70,40.5C70.7,39.8,70.2,38.7,69.3,38.7z"/>
</g>
</svg>
